{
    "asset": {
        "version": "2.0"
    },
    "accessors": [
        {
            "bufferView": 0,
            "componentType": 5126,
            "count": 4620,
            "type": "VEC3",
            "max": [
                554.7922973632813,
                33.449378967285156,
                509.6902770996094
            ],
            "min": [
                -680.0282592773438,
                -3.1264305114746094,
                -633.2637939453125
            ]
        },
        {
            "bufferView": 1,
            "componentType": 5126,
            "count": 4620,
            "type": "VEC2"
        },
        {
            "bufferView": 2,
            "componentType": 5125,
            "count": 66,
            "type": "SCALAR"
        },
        {
            "bufferView": 2,
            "byteOffset": 264,
            "componentType": 5125,
            "count": 18,
            "type": "SCALAR"
        },
        {
            "bufferView": 2,
            "byteOffset": 336,
            "componentType": 5125,
            "count": 240,
            "type": "SCALAR"
        },
        {
            "bufferView": 2,
            "byteOffset": 1296,
            "componentType": 5125,
            "count": 12,
            "type": "SCALAR"
        },
        {
            "bufferView": 2,
            "byteOffset": 1344,
            "componentType": 5125,
            "count": 567,
            "type": "SCALAR"
        },
        {
            "bufferView": 2,
            "byteOffset": 3612,
            "componentType": 5125,
            "count": 75,
            "type": "SCALAR"
        },
        {
            "bufferView": 2,
            "byteOffset": 3912,
            "componentType": 5125,
            "count": 288,
            "type": "SCALAR"
        },
        {
            "bufferView": 2,
            "byteOffset": 5064,
            "componentType": 5125,
            "count": 60,
            "type": "SCALAR"
        },
        {
            "bufferView": 2,
            "byteOffset": 5304,
            "componentType": 5125,
            "count": 1899,
            "type": "SCALAR"
        },
        {
            "bufferView": 2,
            "byteOffset": 12900,
            "componentType": 5125,
            "count": 366,
            "type": "SCALAR"
        },
        {
            "bufferView": 2,
            "byteOffset": 14364,
            "componentType": 5125,
            "count": 1119,
            "type": "SCALAR"
        },
        {
            "bufferView": 2,
            "byteOffset": 18840,
            "componentType": 5125,
            "count": 834,
            "type": "SCALAR"
        },
        {
            "bufferView": 2,
            "byteOffset": 22176,
            "componentType": 5125,
            "count": 48,
            "type": "SCALAR"
        },
        {
            "bufferView": 2,
            "byteOffset": 22368,
            "componentType": 5125,
            "count": 351,
            "type": "SCALAR"
        },
        {
            "bufferView": 2,
            "byteOffset": 23772,
            "componentType": 5125,
            "count": 45,
            "type": "SCALAR"
        },
        {
            "bufferView": 2,
            "byteOffset": 23952,
            "componentType": 5125,
            "count": 168,
            "type": "SCALAR"
        },
        {
            "bufferView": 2,
            "byteOffset": 24624,
            "componentType": 5125,
            "count": 18,
            "type": "SCALAR"
        },
        {
            "bufferView": 2,
            "byteOffset": 24696,
            "componentType": 5125,
            "count": 1926,
            "type": "SCALAR"
        },
        {
            "bufferView": 2,
            "byteOffset": 32400,
            "componentType": 5125,
            "count": 72,
            "type": "SCALAR"
        },
        {
            "bufferView": 2,
            "byteOffset": 32688,
            "componentType": 5125,
            "count": 69,
            "type": "SCALAR"
        },
        {
            "bufferView": 2,
            "byteOffset": 32964,
            "componentType": 5125,
            "count": 15,
            "type": "SCALAR"
        },
        {
            "bufferView": 2,
            "byteOffset": 33024,
            "componentType": 5125,
            "count": 66,
            "type": "SCALAR"
        },
        {
            "bufferView": 2,
            "byteOffset": 33288,
            "componentType": 5125,
            "count": 18,
            "type": "SCALAR"
        }
    ],
    "bufferViews": [
        {
            "buffer": 0,
            "byteOffset": 0,
            "byteLength": 55440,
            "target": 34962
        },
        {
            "buffer": 0,
            "byteOffset": 55440,
            "byteLength": 36960,
            "target": 34962
        },
        {
            "buffer": 0,
            "byteOffset": 92400,
            "byteLength": 33360,
            "target": 34963
        }
    ],
    "buffers": [
        {
            "byteLength": 125760,
            "uri": "53394611_brid_6697_op.bin"
        }
    ],
    "images": [
        {
            "uri": "textures/packed_image_tkjp200356_000001.png"
        },
        {
            "uri": "textures/Tex_Bridge_Diffuse.png"
        },
        {
            "uri": "textures/tkjp200325.jpg"
        },
        {
            "uri": "textures/tbfd2227.jpg"
        },
        {
            "uri": "textures/tkjp200013.jpg"
        },
        {
            "uri": "textures/tkjp200017.jpg"
        }
    ],
    "materials": [
        {
            "pbrMetallicRoughness": {
                "baseColorFactor": [
                    0.5,
                    0.5,
                    0.5,
                    1.0
                ],
                "metallicFactor": 0.0
            }
        },
        {
            "pbrMetallicRoughness": {
                "baseColorFactor": [
                    0.5,
                    0.5,
                    0.5,
                    1.0
                ],
                "baseColorTexture": {
                    "index": 0
                },
                "metallicFactor": 0.0
            }
        },
        {
            "pbrMetallicRoughness": {
                "baseColorFactor": [
                    0.5,
                    0.5,
                    0.5,
                    1.0
                ],
                "baseColorTexture": {
                    "index": 1
                },
                "metallicFactor": 0.0
            }
        },
        {
            "pbrMetallicRoughness": {
                "baseColorFactor": [
                    0.5,
                    0.5,
                    0.5,
                    1.0
                ],
                "baseColorTexture": {
                    "index": 2
                },
                "metallicFactor": 0.0
            }
        },
        {
            "pbrMetallicRoughness": {
                "baseColorFactor": [
                    0.5,
                    0.5,
                    0.5,
                    1.0
                ],
                "baseColorTexture": {
                    "index": 3
                },
                "metallicFactor": 0.0
            }
        },
        {
            "pbrMetallicRoughness": {
                "baseColorFactor": [
                    0.5,
                    0.5,
                    0.5,
                    1.0
                ],
                "baseColorTexture": {
                    "index": 4
                },
                "metallicFactor": 0.0
            }
        },
        {
            "pbrMetallicRoughness": {
                "baseColorFactor": [
                    0.5,
                    0.5,
                    0.5,
                    1.0
                ],
                "baseColorTexture": {
                    "index": 5
                },
                "metallicFactor": 0.0
            }
        }
    ],
    "meshes": [
        {
            "primitives": [
                {
                    "attributes": {
                        "POSITION": 0,
                        "TEXCOORD_0": 1
                    },
                    "indices": 2,
                    "material": 1
                },
                {
                    "attributes": {
                        "POSITION": 0,
                        "TEXCOORD_0": 1
                    },
                    "indices": 3,
                    "material": 2
                },
                {
                    "attributes": {
                        "POSITION": 0,
                        "TEXCOORD_0": 1
                    },
                    "indices": 4,
                    "material": 1
                },
                {
                    "attributes": {
                        "POSITION": 0,
                        "TEXCOORD_0": 1
                    },
                    "indices": 5,
                    "material": 2
                },
                {
                    "attributes": {
                        "POSITION": 0,
                        "TEXCOORD_0": 1
                    },
                    "indices": 6,
                    "material": 3
                },
                {
                    "attributes": {
                        "POSITION": 0,
                        "TEXCOORD_0": 1
                    },
                    "indices": 7,
                    "material": 2
                },
                {
                    "attributes": {
                        "POSITION": 0,
                        "TEXCOORD_0": 1
                    },
                    "indices": 8,
                    "material": 4
                },
                {
                    "attributes": {
                        "POSITION": 0,
                        "TEXCOORD_0": 1
                    },
                    "indices": 9,
                    "material": 2
                },
                {
                    "attributes": {
                        "POSITION": 0,
                        "TEXCOORD_0": 1
                    },
                    "indices": 10,
                    "material": 5
                },
                {
                    "attributes": {
                        "POSITION": 0,
                        "TEXCOORD_0": 1
                    },
                    "indices": 11,
                    "material": 2
                },
                {
                    "attributes": {
                        "POSITION": 0,
                        "TEXCOORD_0": 1
                    },
                    "indices": 12,
                    "material": 5
                },
                {
                    "attributes": {
                        "POSITION": 0,
                        "TEXCOORD_0": 1
                    },
                    "indices": 13,
                    "material": 1
                },
                {
                    "attributes": {
                        "POSITION": 0,
                        "TEXCOORD_0": 1
                    },
                    "indices": 14,
                    "material": 2
                },
                {
                    "attributes": {
                        "POSITION": 0,
                        "TEXCOORD_0": 1
                    },
                    "indices": 15,
                    "material": 1
                },
                {
                    "attributes": {
                        "POSITION": 0,
                        "TEXCOORD_0": 1
                    },
                    "indices": 16,
                    "material": 2
                },
                {
                    "attributes": {
                        "POSITION": 0,
                        "TEXCOORD_0": 1
                    },
                    "indices": 17,
                    "material": 6
                },
                {
                    "attributes": {
                        "POSITION": 0,
                        "TEXCOORD_0": 1
                    },
                    "indices": 18,
                    "material": 2
                },
                {
                    "attributes": {
                        "POSITION": 0,
                        "TEXCOORD_0": 1
                    },
                    "indices": 19,
                    "material": 1
                },
                {
                    "attributes": {
                        "POSITION": 0,
                        "TEXCOORD_0": 1
                    },
                    "indices": 20,
                    "material": 2
                },
                {
                    "attributes": {
                        "POSITION": 0,
                        "TEXCOORD_0": 1
                    },
                    "indices": 21,
                    "material": 1
                },
                {
                    "attributes": {
                        "POSITION": 0,
                        "TEXCOORD_0": 1
                    },
                    "indices": 22,
                    "material": 2
                },
                {
                    "attributes": {
                        "POSITION": 0,
                        "TEXCOORD_0": 1
                    },
                    "indices": 23,
                    "material": 1
                },
                {
                    "attributes": {
                        "POSITION": 0,
                        "TEXCOORD_0": 1
                    },
                    "indices": 24,
                    "material": 2
                }
            ]
        }
    ],
    "nodes": [
        {
            "mesh": 0,
            "name": "group2"
        }
    ],
    "scenes": [
        {
            "nodes": [
                0
            ]
        }
    ],
    "textures": [
        {
            "source": 0
        },
        {
            "source": 1
        },
        {
            "source": 2
        },
        {
            "source": 3
        },
        {
            "source": 4
        },
        {
            "source": 5
        }
    ],
    "scene": 0
}