{
    "asset": {
        "version": "2.0"
    },
    "accessors": [
        {
            "bufferView": 0,
            "componentType": 5126,
            "count": 8029,
            "type": "VEC3",
            "max": [
                565.6958618164063,
                0.0,
                474.3129577636719
            ],
            "min": [
                -581.7682495117188,
                0.0,
                -484.3241271972656
            ]
        },
        {
            "bufferView": 1,
            "componentType": 5126,
            "count": 8029,
            "type": "VEC2"
        },
        {
            "bufferView": 2,
            "componentType": 5125,
            "count": 20607,
            "type": "SCALAR"
        }
    ],
    "bufferViews": [
        {
            "buffer": 0,
            "byteOffset": 0,
            "byteLength": 96348,
            "target": 34962
        },
        {
            "buffer": 0,
            "byteOffset": 96348,
            "byteLength": 64232,
            "target": 34962
        },
        {
            "buffer": 0,
            "byteOffset": 160580,
            "byteLength": 82428,
            "target": 34963
        }
    ],
    "buffers": [
        {
            "byteLength": 243008,
            "uri": "53394611_tran_6668_op.bin"
        }
    ],
    "images": [
        {
            "uri": "textures/Tex_Road_Diffuse.jpg"
        }
    ],
    "materials": [
        {
            "pbrMetallicRoughness": {
                "baseColorFactor": [
                    0.5,
                    0.5,
                    0.5,
                    1.0
                ],
                "metallicFactor": 0.0
            }
        },
        {
            "pbrMetallicRoughness": {
                "baseColorFactor": [
                    0.5,
                    0.5,
                    0.5,
                    1.0
                ],
                "baseColorTexture": {
                    "index": 0
                },
                "metallicFactor": 0.0
            }
        }
    ],
    "meshes": [
        {
            "primitives": [
                {
                    "attributes": {
                        "POSITION": 0,
                        "TEXCOORD_0": 1
                    },
                    "indices": 2,
                    "material": 1
                }
            ]
        }
    ],
    "nodes": [
        {
            "mesh": 0,
            "name": "group1"
        }
    ],
    "scenes": [
        {
            "nodes": [
                0
            ]
        }
    ],
    "textures": [
        {
            "source": 0
        }
    ],
    "scene": 0
}